<svg width="222" height="300" viewBox="0 0 222 300" fill="none" xmlns="http://www.w3.org/2000/svg">
<path fill-rule="evenodd" clip-rule="evenodd" d="M116.236 125.67C111.412 121.991 99.3011 120.337 94.1525 123.879C89.0672 127.436 88.5128 133.188 86.1431 138.479C83.9073 137.423 80.2151 138.935 79.5668 141.013C78.7629 141.992 78.7268 144.745 78.1723 146.062C54.049 149.908 50.3866 168.741 47.483 190.122C43.6418 211.819 34.9219 233.468 38.7074 255.794C38.2142 256.509 37.8253 257.203 37.4657 258.028C36.6041 259.497 37.7139 261.575 39.4518 261.494C41.7013 261.296 43.9285 261.026 46.1886 260.942C52.4538 260.724 58.7247 260.75 64.9922 260.83L65.8469 260.841C97.4336 261.235 129.019 262.011 160.607 262.216C161.753 262.218 162.314 261.189 162.161 260.174C161.853 258.13 161.567 256.085 161.268 254.04C168.74 256.016 176.682 256.513 184.133 254.247C184.654 253.716 182.918 254.004 182.643 253.923C189.5 249.231 187.452 239.347 186.845 232.228C183.068 207.835 181.736 180.845 167.144 160.03C160.832 151.535 151.577 144.809 140.942 143.296L140.647 143.255C137.537 142.84 134.072 142.706 131.353 141.013C128.295 138.568 126.992 134.051 123.775 134.009C122.713 133.995 121.268 135.341 119.713 136.254C119.597 134.244 118.515 132.548 118.276 130.99L118.257 130.857C118.008 129.04 118.349 127.405 116.236 125.67ZM64.3927 190.767C71.172 186.051 88.6844 188.42 89.0853 188.684C89.9681 189.266 90.3482 189.317 90.8256 190.072C91.297 190.135 91.7679 190.2 92.2385 190.267C93.1826 190.576 92.483 191.738 91.3925 191.323C92.0484 194.156 90.1182 196.17 89.3498 198.971C89.1003 199.88 89.3408 201.515 89.3498 202.444C89.2752 203.629 87.9674 205.028 88.1854 206.216C88.9603 210.441 93.1654 214.562 91.3925 218.66C90.218 220.974 86.6856 222.154 84.337 222.941C79.4712 224.811 70.9929 222.87 68.1657 218.66C66.6577 216.414 64.9107 210.749 64.0115 208.992L63.8123 206.205C63.3208 199.276 62.8836 191.817 64.3927 190.767Z" fill="white"/>
<path fill-rule="evenodd" clip-rule="evenodd" d="M124.956 133.6C124.488 133.185 123.796 133.707 124.093 134.268C124.762 135.528 125.447 136.722 126.344 137.835C126.888 138.511 127.47 139.15 128.061 139.781C126.546 141.094 125.246 142.723 124.019 144.251C122.45 146.204 120.967 148.24 119.205 150.027C117.468 151.79 115.548 153.022 113.225 153.844L112.756 154.007C110.423 154.827 107.93 155.934 106.615 158.146C106.355 158.583 106.878 159.122 107.317 158.849C109.602 157.433 112.287 157.148 114.774 156.211C117.177 155.307 119.271 153.915 121.122 152.139C122.969 150.366 124.521 148.348 126.139 146.373C127.739 144.42 129.462 142.752 131.354 141.1C134.275 143.068 137.609 143.924 140.999 144.765L141.369 144.856C144.763 145.698 148.139 146.675 151.323 148.141C154.131 149.432 156.892 150.975 159.179 153.077C161.606 155.308 163.496 158.157 165.225 160.944C169.093 167.178 171.813 174.008 174.207 180.92C176.697 188.111 178.78 195.445 180.461 202.866C181.316 206.641 182.011 210.443 182.582 214.271C182.856 216.115 183.1 217.963 183.315 219.815C183.544 221.792 183.596 223.827 184.202 225.728C184.462 226.543 185.075 226.881 185.689 226.852L185.813 228.414C185.979 230.496 186.133 232.578 186.185 234.673C186.271 238.156 186.232 241.629 185.982 245.104L185.947 245.578C185.75 248.115 185.311 250.965 183.406 252.822C181.433 254.746 178.4 255.351 175.741 255.385C169.549 255.466 163.588 252.536 158.108 249.966C152.465 247.319 146.976 244.38 141.618 241.194C138.889 239.571 136.19 237.894 133.526 236.168C132.218 235.321 130.92 234.459 129.631 233.584C128.893 233.083 128.194 232.533 127.442 232.088C127.81 231.745 127.975 231.205 127.666 230.734C129.839 228.846 130.743 225.477 130.848 222.75C130.934 220.55 130.61 218.355 130.355 216.176C130.226 215.076 130.067 213.979 129.902 212.885C129.837 212.453 129.787 211.99 129.711 211.534C135.576 214.761 141.606 217.636 147.795 220.189C150.967 221.498 154.18 222.675 157.438 223.754L158.098 223.971C161.185 224.983 164.345 225.939 167.536 226.517C167.706 226.548 167.845 226.296 167.663 226.215C164.553 224.841 161.336 223.682 158.18 222.417L157.661 222.206C157.721 222.202 157.782 222.194 157.847 222.179C159.698 221.731 161.535 221.042 163.35 220.461C165.035 219.923 166.928 219.584 168.503 218.771C168.624 218.708 168.556 218.54 168.438 218.532C166.668 218.409 164.747 218.925 163.011 219.229L162.359 219.344C161.267 219.536 160.15 219.744 159.063 220.014C159.024 219.65 158.821 219.283 158.531 219.069C155.347 216.707 155.67 211.937 155.329 208.419L155.077 205.808C154.632 201.237 154.162 196.667 153.448 192.131C153.41 191.889 153.036 191.958 153.034 192.187C152.998 197.81 153.422 203.407 153.634 209.022L153.667 209.943C153.784 213.407 153.876 217.004 156.055 219.67C155.751 219.492 155.339 219.492 155.092 219.786C154.789 220.147 154.613 220.553 154.619 220.951C152.65 220.125 150.69 219.277 148.739 218.411C142.467 215.629 136.327 212.515 130.349 209.146C129.706 208.783 129.095 209.068 128.776 209.546L128.731 209.54C128.723 209.539 128.715 209.538 128.707 209.538L128.662 209.536C128.66 209.536 128.658 209.536 128.656 209.536C127.815 209.073 126.669 209.403 125.947 210.078C125.925 210.099 125.907 210.12 125.888 210.142C124.974 209.731 124.12 209.176 123.346 208.473C121.76 207.034 120.418 205.255 119.247 203.471C117.091 200.186 115.26 196.532 112.348 193.827C109.982 191.63 107.049 190.262 103.972 189.403C103.985 189.313 103.95 189.217 103.888 189.153C103.73 188.991 103.617 188.935 103.413 189.033C103.397 189.041 103.387 189.052 103.38 189.064L103.08 188.55C102.916 188.271 102.748 187.99 102.69 187.917C102.34 187.476 101.981 187.039 101.615 186.611C100.997 185.886 100.291 185.171 99.4746 184.669C97.6865 183.569 95.8067 184.191 93.9684 184.792C92.8576 185.156 91.7505 185.531 90.6417 185.9L90.5273 185.937C89.7005 186.203 88.733 186.436 88.3633 187.313C88.2169 187.66 88.1943 188.02 88.2625 188.37C80.4096 186.37 71.6875 187.289 64.0244 189.636C63.7303 189.726 63.4366 189.969 63.3746 190.287C62.4966 194.796 62.1055 199.42 62.5028 204.006C62.8456 207.964 63.7215 211.844 65.372 215.468L65.4659 215.672C67.017 219.031 69.4755 223.171 73.2302 224.224C75.4973 224.86 78.0047 224.485 80.317 224.368C82.5641 224.255 84.8611 224.239 87.087 223.885C89.0694 223.57 90.8063 222.68 92.0314 221.066C93.0882 219.673 93.6448 217.99 94.1007 216.316C94.3094 216.383 94.5167 216.453 94.7208 216.533C95.582 216.87 96.3117 217.414 96.9715 218.054C98.3646 219.405 99.4453 221.045 100.903 222.335C102.222 223.502 103.726 224.409 105.339 225.107C108.681 226.553 112.266 227.131 115.801 227.898L116.048 227.951C118.709 228.536 121.425 229.254 123.774 230.642C123.82 231.05 124.006 231.434 124.304 231.686C123.89 232.076 123.714 232.693 124.078 233.272C125.095 234.888 126.847 235.807 128.419 236.841L128.522 236.908C130.069 237.935 131.629 238.942 133.202 239.928C136.4 241.933 139.665 243.828 142.976 245.639C148.302 248.553 153.741 251.301 159.28 253.793C158.947 255.431 159.069 257.12 158.819 258.768L158.781 259.004C158.674 259.615 158.818 260.127 159.239 260.527L159.283 260.568L159.283 260.563L159.322 260.599L159.335 260.61L159.331 260.606C159.379 260.651 159.43 260.692 159.481 260.728L159.546 260.77C159.951 261.016 160.473 261.013 160.888 260.796L160.935 260.77L161.015 260.724C161.563 260.408 161.941 259.625 161.714 259.004C161.155 257.476 160.944 255.845 160.427 254.307L160.837 254.49L161.377 254.726C167.216 257.254 173.701 259.383 180.063 257.66C182.874 256.898 185.501 255.286 186.908 252.66C188.292 250.076 188.487 247.075 188.561 244.2C188.652 240.652 188.462 237.05 187.994 233.532C187.681 231.171 187.301 228.765 186.716 226.428C187.017 226.162 187.238 225.781 187.297 225.308C187.573 223.076 187.09 220.756 186.794 218.536C186.505 216.368 186.186 214.204 185.824 212.047C185.095 207.691 184.248 203.345 183.262 199.04C181.507 191.378 179.189 183.853 176.398 176.507L176.154 175.867C173.575 169.153 170.589 162.582 166.432 156.684C164.443 153.862 162.34 151.303 159.53 149.27C156.898 147.365 153.928 145.993 150.863 144.944C147.795 143.895 144.642 143.192 141.433 142.754C138.174 142.31 134.734 142.038 131.694 140.699C132.078 140.009 131.748 139.077 131.101 138.649C128.923 137.207 126.909 135.333 124.956 133.6ZM55.2285 196.266C55.1372 196.127 54.9205 196.215 54.9605 196.379C56.0199 200.725 57.0145 205.08 57.6638 209.51C58.8361 217.504 58.6205 225.602 58.5246 233.655L58.5198 234.072C58.4706 238.41 58.4021 242.748 58.2589 247.084C58.1866 249.275 58.0435 251.488 58.1213 253.681C58.1637 254.87 58.4803 255.995 58.5925 257.17C58.6908 258.198 58.6032 259.241 58.5542 260.27C58.5214 260.954 59.5297 260.925 59.5983 260.27L59.6861 259.423C59.8 258.351 59.9408 257.285 60.2917 256.259C60.7136 255.025 60.9161 253.813 61.0625 252.517C61.2867 250.531 61.3864 248.525 61.4729 246.526L61.5321 245.142C61.8934 236.785 61.8807 228.389 61.2958 220.041L61.253 219.445C60.6738 211.554 59.6687 203.027 55.2285 196.266ZM77.8106 146.531C78.0873 146.417 77.9904 145.998 77.684 146.071L77.1267 146.204C73.0434 147.184 69.0343 148.245 65.223 150.067C61.4094 151.891 58.1806 154.613 55.6151 157.96C50.6279 164.467 48.5555 172.376 46.9194 180.276C45.1012 189.055 43.4457 197.866 41.6117 206.643L41.2711 208.277C39.5741 216.452 37.9718 224.63 36.7912 232.901L36.7064 233.501C35.5159 242.006 34.7997 250.806 36.0988 259.333C36.3558 261.02 39.1593 260.6 39.0497 258.933C38.7331 254.115 38.5064 249.322 38.7255 244.492C38.9448 239.662 39.3972 234.853 40.0716 230.065C40.6391 226.035 41.4851 222.056 42.2338 218.059L42.3512 217.427C42.9781 214.027 43.6244 210.631 44.2693 207.234L45.233 202.148C46.6774 194.533 48.15 186.911 49.814 179.344L49.9127 178.899C51.5412 171.619 53.9419 163.993 58.8265 158.211C63.7834 152.344 70.8794 149.389 77.8106 146.531ZM95.8221 223.752C95.7029 223.486 95.2859 223.515 95.1577 223.752C94.6554 224.68 94.5996 225.864 94.5046 226.912L94.4946 227.02C94.3739 228.298 94.267 229.581 94.2015 230.864C94.0774 233.298 94.018 235.729 94.0256 238.167C94.0334 240.664 94.0837 243.159 94.2181 245.653L94.2546 246.322C94.3773 248.489 94.5832 250.907 95.6117 252.802C95.9855 253.491 97.0023 253.288 97.2188 252.591C97.9282 250.31 97.5639 247.606 97.382 245.27L97.2407 243.447C97.1008 241.624 96.9674 239.8 96.8616 237.975C96.7166 235.477 96.597 232.978 96.4819 230.479C96.4445 229.668 96.4041 228.856 96.3613 228.045L96.2956 226.828C96.2396 225.81 96.2442 224.693 95.8221 223.752ZM175.583 226.984L175.269 226.681C174.305 225.736 173.087 224.281 171.662 224.371C171.094 224.407 170.731 224.88 170.849 225.439C171.101 226.636 172.32 227.257 173.198 227.988C174.159 228.788 175.066 229.644 175.97 230.507C176.772 231.273 177.544 232.061 178.297 232.873L178.579 233.178C178.849 233.473 180.771 235.215 180.563 235.666L180.552 235.687C180.494 235.773 180.59 235.892 180.686 235.862C181.516 235.599 181.465 234.887 181.151 234.165C180.548 232.778 179.492 231.494 178.57 230.31C177.65 229.128 176.654 228.028 175.583 226.984ZM92.8139 192.199C93.4558 190.68 95.8206 190.712 97.1632 190.802C100.544 191.031 104.202 191.888 107.21 193.47C110.329 195.111 112.429 197.739 114.309 200.646L114.397 200.782C116.229 203.634 117.994 207.01 120.862 208.971C122.324 209.97 124.03 210.882 125.803 211.277C125.924 211.491 126.122 211.661 126.38 211.723L126.5 211.75C127.005 211.862 127.79 211.985 128.467 211.912C128.463 212.243 128.466 212.573 128.458 212.887C128.434 213.788 128.424 214.694 128.424 215.595C128.424 217.485 128.525 219.378 128.446 221.267C128.376 222.938 128.141 224.684 127.34 226.178C126.752 227.274 125.976 227.999 125.04 228.691C122.737 227.286 120.132 226.429 117.489 225.785C114.292 225.006 111.019 224.486 107.895 223.429C106.392 222.921 104.946 222.255 103.636 221.351C102.246 220.391 101.185 219.093 100.092 217.822L99.9214 217.625C98.8066 216.345 97.5901 215.12 96.0145 214.425C94.6577 213.827 92.8694 213.721 91.683 212.796C91.0627 212.312 91.0107 211.609 90.9454 210.89C91.7052 210.998 92.5096 210.824 93.2669 210.735L93.6592 210.689C94.3753 210.604 95.0749 210.51 95.7798 210.328C95.9107 210.294 95.9107 210.096 95.7798 210.062C94.9467 209.847 94.121 209.755 93.2669 209.655L93.0662 209.63C92.2935 209.528 91.4812 209.375 90.7232 209.546C90.5872 209.027 90.3908 208.533 90.1153 208.037C89.7285 207.341 88.9967 206.552 88.8978 205.739C88.8683 205.496 88.9248 205.21 89.0391 204.995L89.0785 204.922C89.1265 204.835 89.1835 204.748 89.2667 204.695C89.2759 204.705 89.2955 204.718 89.3379 204.731C89.9212 204.915 90.4301 204.629 90.7002 204.188C91.8467 204.331 93.098 204.283 94.1732 204.33L95.2604 204.383C96.422 204.436 97.6364 204.46 98.7279 204.225C98.8804 204.192 98.9265 203.938 98.7739 203.873C97.4319 203.298 95.804 203.114 94.3673 202.894C93.5649 202.77 92.7566 202.676 91.9519 202.568C91.416 202.495 90.8473 202.376 90.2921 202.347C88.9001 200.612 89.6502 197.874 91.5874 197.127C92.2931 197.438 92.9276 197.257 93.6985 197.191C94.4681 197.125 95.2396 197.08 96.0123 197.083C97.5607 197.09 99.2014 197.498 100.735 197.322C100.984 197.294 101.216 196.961 100.968 196.759C99.7942 195.799 98.1121 195.487 96.6223 195.282L96.3135 195.241C95.814 195.175 95.2066 195.08 94.5766 195.023C94.4341 194.744 94.1785 194.534 93.7945 194.482C93.6804 194.466 93.5657 194.457 93.4511 194.447L93.4529 194.436C92.5164 194.391 92.5571 192.807 92.8139 192.199ZM156.926 221.832C156.942 221.858 156.96 221.882 156.98 221.905L157.009 221.94L156.855 221.877L156.926 221.832ZM76.4722 188.804C80.4139 188.38 84.3612 188.469 88.3146 188.583C88.6308 189.619 89.7314 190.501 90.7978 190.535C89.9626 191.808 89.8764 193.53 90.4621 194.881C89.2186 195.376 88.1473 196.267 87.497 197.535C86.5951 199.293 86.7131 201.249 87.6044 202.874C86.8437 203.563 86.3948 204.683 86.4397 205.739C86.4899 206.916 87.1905 207.921 87.7727 208.896C88.4018 209.95 88.4229 210.878 88.6161 212.058C88.8989 213.786 90.0625 214.834 91.5596 215.488L91.48 215.802C91.094 217.306 90.6138 218.894 89.5106 219.994C88.0915 221.409 85.8899 221.396 84.0149 221.486L83.9244 221.49C82.2075 221.576 80.4914 221.677 78.7751 221.774L77.4878 221.846C75.5117 221.955 73.6139 221.968 72.0007 220.66C69.367 218.524 67.5615 214.99 66.4187 211.862C64.02 205.295 63.9913 198.089 65.0923 191.249C68.7848 190.058 72.6161 189.219 76.4722 188.804ZM109.252 199.699L109.223 199.701C108.411 199.793 107.854 200.452 107.655 201.232C107.367 202.367 107.508 203.393 106.814 204.417C106.101 205.47 105.662 206.313 105.558 207.615C105.515 208.15 105.535 208.684 105.416 209.208L105.33 209.575C105.238 209.967 105.163 210.344 105.208 210.764C105.25 211.148 105.437 211.446 105.821 211.569C107.072 211.97 108.038 211.047 108.361 209.879C108.641 208.87 108.268 207.668 108.662 206.721C108.88 206.196 109.282 205.757 109.51 205.228C109.735 204.705 109.848 204.157 109.885 203.588C109.953 202.511 109.002 201.217 109.533 200.241C109.646 200.032 109.518 199.692 109.252 199.699ZM125.873 188.584C125.026 188.411 124.065 188.016 123.229 188.344C122.8 188.514 122.587 189.038 122.95 189.403C123.58 190.035 124.496 190.07 125.345 190.219L125.419 190.233C126.423 190.419 127.428 190.595 128.435 190.762C130.329 191.076 132.227 191.354 134.132 191.59C136.089 191.832 138.051 192.048 140.015 192.211L140.776 192.273C142.436 192.406 144.163 192.506 145.791 192.252C146.028 192.215 145.99 191.87 145.791 191.809C144.007 191.269 142.05 191.124 140.206 190.895C138.245 190.651 136.287 190.394 134.335 190.089C132.385 189.784 130.439 189.457 128.499 189.095C127.622 188.932 126.747 188.761 125.873 188.584ZM95.2987 186.847C96.0422 186.584 96.8603 186.193 97.666 186.324C99.0555 186.549 100.292 187.905 101.392 188.798L100.84 188.69C98.014 188.146 94.2721 187.56 91.9001 189.359C91.894 189.349 91.8893 189.339 91.8825 189.328C91.6909 189.037 91.4691 188.81 91.227 188.561C91.2039 188.539 91.1815 188.516 91.1595 188.493L91.0289 188.354L91.3276 188.251C91.9676 188.024 92.7258 187.732 92.8456 187.689L92.8539 187.686C93.6698 187.409 94.4867 187.136 95.2987 186.847ZM118.515 127.537C118.631 126.04 116.304 126.052 116.188 127.537C115.937 130.78 116.666 133.992 118.234 136.835C118.246 136.856 118.258 136.874 118.27 136.893C117.289 137.405 116.297 137.895 115.283 138.333C113.986 138.894 112.664 139.405 111.318 139.838C110.101 140.23 108.602 140.385 107.578 141.201C105.421 142.922 106.231 146.493 106.647 148.807L106.711 149.172C106.918 150.363 107.067 151.585 106.566 152.728C106.031 153.949 104.948 154.855 103.982 155.729L103.787 155.906C102.931 156.686 101.953 157.635 101.325 158.693C100.752 157.507 99.9713 156.538 99.1454 155.446C98.5562 154.667 98.9756 154.411 99.3989 153.65C99.8063 152.917 100.005 152.137 99.8779 151.301C99.6428 149.758 98.4114 148.644 97.1857 147.807C95.7382 146.818 94.1227 146.086 92.6263 145.166C89.5515 143.277 86.5571 141.117 83.8593 138.718C83.7848 138.652 83.6558 138.738 83.7154 138.829C85.8465 142.075 88.3454 144.88 91.4165 147.261C92.6617 148.226 93.9699 149.027 95.2867 149.869L95.6653 150.112C96.1941 150.455 96.8536 150.913 97.0927 151.497C97.3333 152.085 96.8203 152.528 96.5441 153.015C95.6673 154.56 96.0903 156.001 97.1299 157.311L97.1783 157.372C98.2113 158.646 98.9942 159.832 99.3686 161.46C100.173 164.959 99.0525 168.603 97.8795 171.887L97.8332 172.017C97.1986 173.787 96.5242 175.544 95.9729 177.343L95.8212 177.84C95.3217 179.495 94.9127 181.127 95.473 182.829C95.6636 183.407 96.4517 183.544 96.779 182.999C97.9338 181.079 98.2216 178.768 98.9455 176.656C99.651 174.598 100.461 172.577 101.142 170.511C102.02 167.851 102.607 164.987 102.288 162.196C102.298 162.18 102.308 162.165 102.316 162.148L102.539 161.658C103.148 160.333 103.737 159.176 104.844 158.121C106 157.019 107.254 156.044 108.163 154.71C110.137 151.814 108.916 148.592 108.678 145.425L108.65 145.036C108.607 144.379 108.583 143.485 109.012 143.03C109.495 142.518 110.626 142.387 111.266 142.16C112.921 141.574 114.551 140.891 116.104 140.07C117.582 139.289 119.014 138.427 120.347 137.416L121.023 136.907C122.089 136.102 123.195 135.222 123.909 134.125C123.992 133.999 123.852 133.795 123.702 133.856C122.51 134.341 121.42 135.112 120.304 135.783C120.286 135.742 120.266 135.7 120.243 135.659C118.862 133.156 118.294 130.384 118.515 127.537ZM80.411 144.683C79.9357 143.378 77.7697 143.479 77.856 145.029C77.9223 146.221 78.4274 147.296 78.8892 148.378L78.9385 148.494C79.4153 149.621 79.966 150.679 80.625 151.712C81.8841 153.686 83.3589 155.519 84.9342 157.248C86.3624 158.816 88.2369 159.775 90.3969 159.615C91.307 159.548 92.2257 159.316 93.0232 158.861C93.9704 158.32 94.9991 156.696 96.2076 157.09C96.3245 157.128 96.4335 156.956 96.3325 156.875C94.9373 155.75 93.3538 157.494 92.0181 157.915C90.0055 158.548 87.94 157.848 86.6446 156.218C85.2921 154.517 84.0472 152.612 82.9105 150.76C82.3332 149.82 81.8065 148.844 81.3516 147.838C80.8925 146.822 80.7882 145.719 80.411 144.683ZM83.6553 136.651C83.714 136.471 83.4904 136.3 83.3323 136.403C82.4156 137 81.6212 137.79 80.7756 138.482C79.8374 139.25 78.8923 140.002 77.9326 140.743C76.5335 141.823 78.1561 143.811 79.3877 142.632C81.073 141.018 82.9188 138.907 83.6553 136.651ZM88.6884 130.334C88.316 128.896 86.1133 129.489 86.4343 130.911L86.4448 130.954C87.0528 133.302 86.1869 135.692 84.3384 137.214L84.2703 137.269C83.1009 138.206 84.7577 139.845 85.9156 138.916C88.4434 136.891 89.4949 133.449 88.6884 130.334Z" fill="black"/>
<path fill-rule="evenodd" clip-rule="evenodd" d="M69.5563 84.553C70.2817 78.7563 72.5603 72.6018 74.9568 67.1977C80.3453 55.7719 92.6818 54.1988 103.741 51.843C114.654 50.252 126.21 48.8154 136.959 51.9898C143.002 53.4721 145.362 60.6788 144.408 66.3659C143.864 69.9097 142.253 73.2637 140.879 76.5481C138.149 83.2929 136.417 90.5138 136.414 97.8164C136.601 102.589 137.274 108.036 131.798 110.057C126.586 112.652 126.146 119.687 119.621 123.678C116.982 129.03 109.795 129.501 104.622 130.743C101.352 131.369 98.0453 131.831 94.7298 132.129C85.1295 133.36 77.4494 130.575 72.4239 122.011C69.0609 116.799 66.5565 110.781 67.1752 104.464C67.7914 97.8125 68.8179 91.1956 69.5563 84.553Z" fill="white"/>
<path fill-rule="evenodd" clip-rule="evenodd" d="M103.658 37.9568C103.11 37.3349 102.266 37.5482 101.753 38.04C101.42 38.1384 101.097 38.2848 100.791 38.4785C100.101 38.3899 99.3782 38.3899 98.7016 38.4147C98.5375 38.3225 98.3616 38.2405 98.1701 38.1701C96.8021 37.6693 95.5907 37.9237 94.5915 38.5942C94.1102 38.1382 93.503 37.8521 92.7268 37.8953C92.034 37.9341 91.5404 38.2605 91.1173 38.6904C90.6954 38.0812 90.0134 37.6466 89.1637 37.5861C87.9761 37.5016 86.8344 37.9785 85.8882 38.7169C85.3369 38.0836 84.5853 37.7196 83.7477 37.7161C83.1966 37.6159 82.6151 37.6554 82.0896 37.8143C81.3266 38.045 80.6567 38.4773 80.1232 39.0384C79.2792 38.229 78.246 37.6466 77.0547 37.7315C75.5128 37.8431 74.2347 38.9783 73.6407 40.3756C72.5971 40.7942 71.6337 41.3912 70.8285 42.2425C70.7855 42.2873 70.7445 42.3343 70.7015 42.3814C70.2677 42.5417 69.8592 42.7689 69.4997 43.0681C68.3604 44.0174 68.1063 45.3912 68.4835 46.7374C68.4307 46.9529 68.3857 47.172 68.3447 47.391C67.2777 47.5535 66.3084 48.1701 65.7573 49.174C65.003 50.5517 65.1515 52.3675 65.9684 53.6828C66.3195 54.2486 66.7653 54.7253 67.266 55.1421C66.6998 56.4298 66.9715 57.9664 67.8843 59.0079C68.1067 59.367 68.3797 59.691 68.6869 59.9844C68.3478 61.3157 68.9509 62.6893 70.1547 63.4006L70.2577 63.6587C70.275 63.7016 70.2926 63.7443 70.3107 63.7865C70.324 63.8413 70.3404 63.8944 70.3566 63.9478C70.3853 64.4202 70.5407 64.8838 70.8491 65.3206C71.4804 66.2157 72.2629 66.7995 72.6779 67.8445L72.7194 67.9542C72.8979 68.4488 73.474 68.7977 73.9649 68.645C71.2393 74.2499 69.8104 80.4865 68.8294 86.5985C68.3402 89.6476 67.9627 92.7073 67.6565 95.7787L67.3563 98.8373C67.0922 101.556 66.8571 104.284 66.8556 107.011C66.8517 113.182 68.6144 119.117 72.3978 124.027C75.976 128.669 81.0394 132.033 86.7594 133.358C92.6651 134.724 99.5928 134.186 104.889 131.058C106.45 130.139 105.082 127.927 103.493 128.667C100.486 130.068 97.4295 131.109 94.0955 131.342C90.8457 131.571 87.588 131.164 84.5062 130.099C79.4076 128.336 75.0692 124.644 72.2805 120.045C70.9067 117.779 69.912 115.319 69.3824 112.72C68.7232 109.481 68.8225 106.132 69.0647 102.852L69.0815 102.628C69.5602 96.3069 70.1915 89.9468 71.2116 83.6887C72.1132 78.1546 73.4998 72.7327 75.2998 67.4308C76.0049 66.8092 76.7936 66.2949 77.6376 65.9043C83.8183 65.6458 90.01 65.7214 96.1827 66.1484C101.447 66.5149 106.686 67.1351 111.885 68.0389L112.442 68.1368C113.593 68.3421 114.871 68.4595 115.956 68.9235C116.886 69.3227 117.263 70.0899 117.497 71.0329C118.088 73.4184 118.177 76.0292 118.277 78.4754C118.375 80.8666 118.154 83.2777 118.346 85.6611C118.508 87.6552 119.018 89.6963 120.493 91.1388C121.265 91.894 122.215 92.3069 123.106 92.8803C123.683 93.2503 123.927 93.6317 123.853 94.3167C123.692 95.8157 122.487 97.7041 123.841 98.9879C124.079 99.213 124.492 99.2423 124.726 98.9879C125.285 98.3795 126.057 97.9155 126.719 97.4243C126.997 97.221 126.766 96.8257 126.452 96.9664C126.037 97.1525 125.615 97.3717 125.183 97.5634C126.137 96.7768 127.493 96.391 128.623 96.1621C129.191 96.0486 129.789 96.0153 130.382 96.0683C130.819 96.2775 131.267 96.4715 131.714 96.6611C132.283 96.9 132.858 97.1171 133.436 97.3227C135.443 98.9605 136.401 101.624 135.982 104.229C135.754 105.667 135.091 107.231 133.843 108.07C132.363 109.064 130.382 108.638 128.783 109.376C127.286 110.066 126.375 111.462 125.693 112.906L125.409 113.507C124.776 114.838 124.125 116.134 123.26 117.346C122.26 118.749 121.035 120.009 119.698 121.092C119.049 121.616 118.358 122.087 117.644 122.516L117.449 122.632C116.725 123.057 116.208 123.461 116.159 124.36C116.143 124.673 116.34 124.959 116.595 125.121C117.689 125.816 118.777 124.947 119.688 124.34C120.671 123.687 121.611 122.951 122.481 122.149C124.134 120.626 125.564 118.818 126.665 116.855C127.503 115.36 127.98 113.256 129.305 112.098C130.114 111.391 131.257 111.385 132.267 111.256C133.207 111.135 134.097 110.939 134.933 110.475C138.335 108.583 139.297 104.002 138.49 100.462C138.353 99.8646 138.161 99.2834 137.925 98.7237C139.191 98.9351 140.614 97.6241 140.1 96.301C140.061 96.2012 140.016 96.1075 139.973 96.0114C140.807 95.4615 141.466 94.628 141.779 93.5378C141.939 92.9742 141.962 92.4047 141.878 91.8548C142.283 91.583 142.617 91.209 142.832 90.7492C143.504 90.438 144.1 89.9724 144.456 89.3071C144.948 88.3891 144.886 87.5437 144.511 86.7824C144.563 86.6867 144.614 86.5889 144.663 86.4889C146.041 85.6143 147.002 84.1073 146.893 82.436C146.858 81.8822 146.721 81.3832 146.51 80.9333C146.527 80.8766 146.545 80.8176 146.561 80.7609C147.714 80.1738 148.667 79.2092 149.007 77.9216C149.347 76.6259 148.947 75.3343 148.146 74.3402C149.318 73.4812 150.024 72.2816 149.596 70.4674C149.422 69.7298 149.072 69.0584 148.599 68.4928C148.601 68.4754 148.605 68.4578 148.609 68.44L148.718 68.3548C150.166 67.2109 150.998 65.7533 150.11 63.9605C149.711 63.1544 149.142 62.5926 148.474 62.2227L148.441 62.1171C148.919 61.0897 149.082 59.9488 148.751 58.7492C148.482 57.7611 147.843 56.9742 147.026 56.4519C147.08 56.0094 147.073 55.538 146.985 55.027C146.838 54.1642 146.41 53.4108 145.785 52.8765C145.761 52.7629 145.732 52.6515 145.699 52.5398C145.488 51.857 145.093 51.1153 144.636 50.5652C144.259 50.1092 143.836 49.9429 143.321 49.9253C143.352 49.5047 143.33 49.0779 143.244 48.6454C142.98 47.311 142.132 46.0564 140.876 45.4869C140.36 45.254 139.817 45.1857 139.293 45.2423C138.847 44.303 137.978 43.6221 136.909 43.4754C136.492 43.4167 136.106 43.4204 135.75 43.4734C135.549 43.3793 135.339 43.2953 135.121 43.2188C134.976 43.1679 134.829 43.121 134.683 43.0742C134.188 42.4597 133.538 41.9683 132.777 41.673C131.9 41.3306 131.007 41.3656 130.215 41.6533L129.963 41.6004C129.569 40.9155 128.939 40.3852 127.972 40.1445C126.874 39.8724 125.746 40.2521 124.882 40.9431C124.878 40.9431 124.875 40.9431 124.869 40.9409C124.417 39.9292 123.645 39.2247 122.35 39.2736C121.543 39.3049 120.814 39.7063 120.251 40.2777C119.938 40.2384 119.626 40.2032 119.311 40.1681C118.979 39.7785 118.609 39.4147 118.201 39.0879C117.533 38.5515 116.663 38.5947 116.17 39.3499C116.063 39.5143 115.963 39.6807 115.864 39.847L115.412 39.8157C114.881 39.0975 114.156 38.6122 113.163 38.5732C112.252 38.5358 111.603 38.9822 111.109 39.6063C110.706 39.5965 110.302 39.5889 109.897 39.5828C109.426 39.0368 108.871 38.5554 108.238 38.1562C107.754 37.8509 107.038 37.9548 106.646 38.3619C106.38 38.6386 106.133 38.9274 105.904 39.2264C105.312 38.5619 104.512 38.1241 103.658 37.9568ZM132.42 100.1C131.507 99.579 130.28 100.143 129.397 100.585C128.32 101.123 127.251 101.935 126.592 102.953C125.695 104.338 127.804 105.458 128.748 104.215C129.328 103.45 129.791 102.679 130.495 102.01C131.138 101.395 132.07 100.984 132.439 100.174C132.453 100.147 132.449 100.115 132.42 100.1ZM131.778 66.4693L131.761 66.4204C131.502 65.7095 132.634 65.403 132.892 66.1081C133.282 67.1768 132.832 68.3386 131.778 68.8001C131.486 68.9281 131.152 68.8836 130.976 68.5895C130.828 68.3419 130.897 67.913 131.186 67.7864C131.779 67.5267 131.978 67.0682 131.778 66.4693ZM141.537 64.4813C140.97 63.9803 141.802 63.1523 142.366 63.6512C142.893 64.1165 143.283 64.7486 143.182 65.4756C143.078 66.2165 142.521 66.7396 141.91 67.1093C141.263 67.5013 140.673 66.4864 141.318 66.0954L141.391 66.051C141.662 65.8825 141.979 65.6508 142.025 65.3193C142.073 64.967 141.776 64.6921 141.537 64.4813ZM138.318 55.6414L138.278 55.6118C137.669 55.1766 138.254 54.1578 138.87 54.5979C139.434 55.0016 139.887 55.5261 139.935 56.2494C139.981 56.9523 139.624 57.5617 139.157 58.0562C138.637 58.6063 137.809 57.775 138.328 57.2261C138.833 56.6911 138.932 56.1073 138.318 55.6414Z" fill="black"/>
<path fill-rule="evenodd" clip-rule="evenodd" d="M85.606 114.942C85.3062 114.42 84.616 113.936 83.9844 114.01C81.1549 114.343 81.1597 117.778 82.2523 119.783C83.2211 121.562 85.2259 122.605 87.2325 122.453C89.3405 122.293 91.1366 121.052 91.9271 119.077C92.4499 117.771 92.6914 115.359 91.3008 114.481C91.275 114.465 91.2324 114.469 91.2119 114.493C90.5451 115.269 90.5189 116.436 89.9352 117.3C89.3923 118.105 88.5489 118.769 87.5608 118.871C86.8229 118.948 86.0764 118.682 85.7877 118.018C85.6316 117.659 85.6494 117.465 85.7081 117.218L85.7614 117.003C85.9462 116.251 86.0292 115.679 85.606 114.942ZM84.8496 99.8761C83.3739 100.774 81.1254 102.869 82.7129 105.096C84.5816 107.059 87.272 104.808 88.5978 103.79C89.8272 103.001 91.2084 105.03 90.0678 105.952C80.4875 113.054 76.5996 100.111 84.1032 98.82C84.9294 98.6777 85.2362 99.5982 84.8496 99.8761ZM100.433 93.7167C99.5275 92.3559 97.46 92.5563 96.9611 94.1711C96.6908 95.0459 97.064 95.8322 97.0447 96.7058C97.0285 97.4437 97.0767 98.2661 97.3027 98.9807C97.8178 100.61 99.2815 101.762 101.013 101.714C102.739 101.666 104.259 100.572 104.982 99.0316C105.708 97.485 105.554 95.8844 105.024 94.3118C104.999 94.2363 104.9 94.1997 104.84 94.2633C104.214 94.9295 103.756 95.6328 103.282 96.3788L102.796 97.1434C102.425 97.7191 101.885 98.4546 101.192 98.4084L101.088 98.3981C100.895 98.3816 100.924 98.4199 100.776 98.1569C100.707 98.0351 100.719 97.8089 100.686 97.6653L100.675 97.6167L100.681 97.5906C100.696 97.521 100.71 97.3899 100.722 97.1625L100.725 97.1122C100.775 96.0482 101.075 94.6809 100.433 93.7167ZM77.4726 94.6227C77.635 92.8822 75.1915 92.4957 74.3791 93.7835C73.9554 94.4551 73.8321 95.2988 73.7383 96.0981L73.6945 96.4775C73.5984 97.2984 73.5603 98.1524 73.9162 98.9182C74.4766 100.124 75.6955 100.762 77.0103 100.661C78.2659 100.564 79.4114 99.8352 80.0153 98.7285C80.5537 97.7411 81.0889 95.8131 80.4351 94.7831C80.3956 94.7207 80.3166 94.7127 80.2625 94.7608C79.6446 95.3101 79.5439 96.3121 79.1765 97.0278C78.7976 97.7659 78.2229 98.4853 77.3519 98.5974C76.5186 98.7047 76.2003 98.2489 76.4129 97.4534C76.687 96.4264 77.3695 95.7278 77.4726 94.6227ZM99.773 83.369L99.3734 83.2158C98.0042 82.6978 96.1245 82.0992 95.0114 83.2141C94.3246 83.9015 94.1939 84.9142 94.684 85.7532C95.2779 86.7694 96.3432 86.7945 97.3719 86.9442C98.5419 87.1144 99.7318 87.4381 100.821 87.8996C102.048 88.4195 103.187 89.0677 104.303 89.7915C105.363 90.4794 106.42 91.6037 107.689 91.8156C107.741 91.8242 107.799 91.8019 107.813 91.745C108.101 90.5023 107.3 89.2794 106.585 88.3099C105.72 87.1362 104.672 86.1728 103.501 85.309C102.37 84.4751 101.079 83.8726 99.773 83.369ZM74.902 87.7872L74.78 87.7658C73.9497 87.6274 73.1973 87.6593 72.5716 88.3178C72.094 88.8201 71.9099 89.4712 72.1376 90.1354C72.3477 90.7481 72.8175 91.3706 73.4993 91.499C75.8012 91.9326 78.3509 91.861 80.6643 91.5326C81.7227 91.3823 82.7907 91.1984 83.8216 90.9084L84.2959 90.7707C85.1566 90.5245 86.142 90.2673 86.7671 89.6334C86.9919 89.4056 86.8623 89.0796 86.5934 88.9741C85.5026 88.5463 84.0074 88.7739 82.8442 88.7405C81.4911 88.7017 80.1359 88.6002 78.7892 88.4602C77.4732 88.3232 76.1998 88.0256 74.902 87.7872Z" fill="black"/>
<path fill-rule="evenodd" clip-rule="evenodd" d="M102.26 119.999C100.677 116.287 97.2242 113.559 93.2484 112.561C90.3287 111.831 87.2647 111.854 84.2884 112.144C82.7291 112.295 81.0565 112.419 79.587 112.998C78.3321 113.494 77.3094 114.43 76.5405 115.53C75.6251 116.832 75.0026 118.323 74.5654 119.851C74.5033 120.068 74.445 120.287 74.3905 120.507C74.5806 121.66 74.9842 122.641 76.0506 123.366C77.0912 124.074 78.3328 124.363 79.5706 124.466C79.6919 124.408 79.8092 124.348 79.9168 124.286C81.8456 123.181 83.2031 120.568 85.6376 120.921C87.8102 121.237 89.2403 123.975 90.5323 125.58C94.6795 126.064 98.8236 124.816 102.198 122.441C102.369 121.628 102.379 120.809 102.26 119.999ZM71.572 117.183C71.9038 116.25 72.3216 115.348 72.8169 114.497C74.4543 111.684 76.968 109.443 79.9521 108.161C87.0111 105.135 96.1448 107.268 101.845 112.232C103.793 113.929 105.762 116.423 106.357 119.105C106.535 119.14 106.703 119.233 106.841 119.364C110.96 116.767 115.201 114.269 118.52 110.669C120.93 108.054 122.607 104.959 123.633 101.557C123.717 101.278 124.168 101.318 124.155 101.628C124.151 101.701 124.147 101.773 124.143 101.845C124.186 101.712 124.389 101.781 124.404 101.91C124.957 106.042 125.648 110.422 125.011 114.575C124.631 117.054 123.507 118.868 122.004 120.827C120.394 122.927 118.571 124.88 116.707 126.753C115.524 127.942 114.289 129.313 112.841 130.185C111.157 131.198 109.246 131.968 107.449 132.749C105.62 133.547 103.764 134.283 101.873 134.922C98.0925 136.203 94.1853 137.089 90.2099 137.477C87.0267 137.786 83.3889 138.123 80.3385 136.924C78.0005 136.005 76.1132 134.344 74.6163 132.346C72.9867 130.169 71.6984 127.69 70.9863 125.076C70.2462 122.36 71.416 117.621 71.572 117.183Z" fill="black"/>
</svg>
